<?xml version="1.0" encoding="UTF-8" standalone="no"?>
<!DOCTYPE svg PUBLIC "-//W3C//DTD SVG 1.1//EN" "http://www.w3.org/Graphics/SVG/1.1/DTD/svg11.dtd">
<svg xmlns="http://www.w3.org/2000/svg" version="1.1" viewBox="0 0 575 434">
<g stroke-width="2.00" fill="none" stroke-linecap="butt">
<path stroke="#2e2e2e" stroke-opacity="0.608" vector-effect="non-scaling-stroke" d="
  M 31.81 0.00
  Q 10.20 4.94 1.88 25.22
  Q 1.73 25.59 1.27 25.94
  Q 0.65 26.42 0.54 27.25"
/>
<path stroke="#666666" vector-effect="non-scaling-stroke" d="
  M 0.03 33.45
  Q 1.06 32.10 1.26 29.25
  Q 1.36 27.77 0.54 27.75"
/>
<path stroke="#7f7f7f" vector-effect="non-scaling-stroke" d="
  M 30.98 21.43
  C 24.91 23.84 20.23 30.32 20.23 37.00
  Q 20.25 189.67 20.25 342.35
  Q 20.25 349.06 21.62 352.46
  C 26.62 364.85 38.77 363.35 50.00 363.20
  A 0.51 0.51 -0.6 0 0 50.50 362.69
  Q 50.49 230.13 50.51 97.57
  Q 50.51 83.14 52.06 77.71
  C 56.47 62.17 70.58 51.79 86.75 50.77
  Q 91.02 50.50 93.75 50.50
  Q 298.72 50.50 503.69 50.50
  A 0.52 0.51 -89.4 0 0 504.20 49.99
  C 504.32 38.99 506.12 26.68 493.59 21.70
  Q 489.92 20.25 481.23 20.25
  Q 260.95 20.25 40.67 20.25
  Q 33.97 20.25 30.98 21.43"
/>
<path stroke="#7f7f7f" vector-effect="non-scaling-stroke" d="
  M 226.26 200.24
  C 231.79 193.52 238.60 191.85 244.58 199.43
  Q 298.96 268.29 353.43 337.39
  A 0.52 0.52 0.0 0 0 354.25 337.39
  Q 384.79 298.87 415.68 260.15
  C 420.87 253.65 423.99 248.48 432.23 251.90
  C 434.53 252.85 436.14 255.14 437.67 257.07
  Q 495.33 329.67 552.87 402.27
  Q 553.72 403.34 553.99 402.00
  C 554.41 399.88 554.75 397.87 554.75 395.64
  Q 554.75 243.72 554.75 91.80
  Q 554.75 84.82 553.36 81.40
  C 550.17 73.59 543.55 70.76 535.21 70.76
  Q 313.70 70.74 92.21 70.76
  C 79.21 70.76 70.78 76.00 70.77 90.09
  Q 70.66 238.98 70.85 388.00
  Q 70.85 388.49 71.17 388.10
  Q 148.81 294.21 226.26 200.24"
/>
<path stroke="#666666" vector-effect="non-scaling-stroke" d="
  M 329.69 413.73
  L 387.25 413.75
  Q 387.90 413.75 387.50 413.25
  L 235.94 221.06
  A 0.42 0.42 45.8 0 0 235.29 221.05
  L 209.84 251.83
  A 0.78 0.68 -44.4 0 0 209.77 252.73
  L 329.34 413.42
  A 0.56 0.14 56.0 0 0 329.69 413.73"
/>
<path stroke="#666666" vector-effect="non-scaling-stroke" d="
  M 79.30 411.24
  Q 83.42 413.52 88.00 413.53
  Q 195.97 413.75 303.78 413.75
  Q 304.45 413.75 304.04 413.20
  L 196.53 268.72
  A 0.51 0.41 -45.4 0 0 195.81 268.81
  L 79.09 410.34
  A 0.63 0.58 34.3 0 0 79.30 411.24"
/>
<path stroke="#666666" vector-effect="non-scaling-stroke" d="
  M 414.25 413.75
  L 535.69 413.75
  Q 536.27 413.75 535.92 413.31
  L 428.02 277.24
  A 0.20 0.19 46.0 0 0 427.72 277.23
  L 367.06 353.56
  A 0.90 0.69 -46.6 0 0 366.96 354.54
  L 413.26 413.24
  A 1.34 1.19 68.8 0 0 414.25 413.75"
/>
<path stroke="#7f7f7f" vector-effect="non-scaling-stroke" d="
  M 426.81 165.25
  A 58.46 58.46 0.0 0 0 368.35 106.79
  A 58.46 58.46 0.0 0 0 309.89 165.25
  A 58.46 58.46 0.0 0 0 368.35 223.71
  A 58.46 58.46 0.0 0 0 426.81 165.25"
/>
<path stroke="#7f7f7f" vector-effect="non-scaling-stroke" d="
  M 406.64 165.25
  A 38.29 38.29 0.0 0 0 368.35 126.96
  A 38.29 38.29 0.0 0 0 330.06 165.25
  A 38.29 38.29 0.0 0 0 368.35 203.54
  A 38.29 38.29 0.0 0 0 406.64 165.25"
/>
</g>
<path fill="#1a1a1a" fill-opacity="0.212" d="
  M 0.00 0.00
  L 31.81 0.00
  Q 10.20 4.94 1.88 25.22
  Q 1.73 25.59 1.27 25.94
  Q 0.65 26.42 0.54 27.25
  L 0.00 4.69
  L 0.00 0.00
  Z"
/>
<path fill="#323232" d="
  M 31.81 0.00
  L 491.80 0.03
  C 517.87 5.41 526.10 25.49 524.37 50.01
  A 0.65 0.64 2.5 0 0 525.01 50.70
  C 532.43 50.81 540.78 50.33 547.53 52.33
  Q 569.84 58.97 574.98 83.33
  L 574.95 400.79
  Q 569.31 428.20 541.94 433.99
  L 87.19 434.00
  C 70.77 432.46 56.38 422.62 52.28 406.40
  Q 49.64 395.99 50.65 384.83
  A 1.61 1.60 2.1 0 0 49.03 383.09
  C 42.65 383.15 35.43 383.48 29.48 381.98
  Q 5.67 376.02 0.04 350.66
  L 0.03 33.45
  Q 1.06 32.10 1.26 29.25
  Q 1.36 27.77 0.54 27.75
  L 0.54 27.25
  Q 0.65 26.42 1.27 25.94
  Q 1.73 25.59 1.88 25.22
  Q 10.20 4.94 31.81 0.00
  Z
  M 30.98 21.43
  C 24.91 23.84 20.23 30.32 20.23 37.00
  Q 20.25 189.67 20.25 342.35
  Q 20.25 349.06 21.62 352.46
  C 26.62 364.85 38.77 363.35 50.00 363.20
  A 0.51 0.51 -0.6 0 0 50.50 362.69
  Q 50.49 230.13 50.51 97.57
  Q 50.51 83.14 52.06 77.71
  C 56.47 62.17 70.58 51.79 86.75 50.77
  Q 91.02 50.50 93.75 50.50
  Q 298.72 50.50 503.69 50.50
  A 0.52 0.51 -89.4 0 0 504.20 49.99
  C 504.32 38.99 506.12 26.68 493.59 21.70
  Q 489.92 20.25 481.23 20.25
  Q 260.95 20.25 40.67 20.25
  Q 33.97 20.25 30.98 21.43
  Z
  M 226.26 200.24
  C 231.79 193.52 238.60 191.85 244.58 199.43
  Q 298.96 268.29 353.43 337.39
  A 0.52 0.52 0.0 0 0 354.25 337.39
  Q 384.79 298.87 415.68 260.15
  C 420.87 253.65 423.99 248.48 432.23 251.90
  C 434.53 252.85 436.14 255.14 437.67 257.07
  Q 495.33 329.67 552.87 402.27
  Q 553.72 403.34 553.99 402.00
  C 554.41 399.88 554.75 397.87 554.75 395.64
  Q 554.75 243.72 554.75 91.80
  Q 554.75 84.82 553.36 81.40
  C 550.17 73.59 543.55 70.76 535.21 70.76
  Q 313.70 70.74 92.21 70.76
  C 79.21 70.76 70.78 76.00 70.77 90.09
  Q 70.66 238.98 70.85 388.00
  Q 70.85 388.49 71.17 388.10
  Q 148.81 294.21 226.26 200.24
  Z
  M 329.69 413.73
  L 387.25 413.75
  Q 387.90 413.75 387.50 413.25
  L 235.94 221.06
  A 0.42 0.42 45.8 0 0 235.29 221.05
  L 209.84 251.83
  A 0.78 0.68 -44.4 0 0 209.77 252.73
  L 329.34 413.42
  A 0.56 0.14 56.0 0 0 329.69 413.73
  Z
  M 79.30 411.24
  Q 83.42 413.52 88.00 413.53
  Q 195.97 413.75 303.78 413.75
  Q 304.45 413.75 304.04 413.20
  L 196.53 268.72
  A 0.51 0.41 -45.4 0 0 195.81 268.81
  L 79.09 410.34
  A 0.63 0.58 34.3 0 0 79.30 411.24
  Z
  M 414.25 413.75
  L 535.69 413.75
  Q 536.27 413.75 535.92 413.31
  L 428.02 277.24
  A 0.20 0.19 46.0 0 0 427.72 277.23
  L 367.06 353.56
  A 0.90 0.69 -46.6 0 0 366.96 354.54
  L 413.26 413.24
  A 1.34 1.19 68.8 0 0 414.25 413.75
  Z"
/>
<path fill="#cbcbcb" d="
  M 20.23 37.00
  C 20.23 30.32 24.91 23.84 30.98 21.43
  Q 33.97 20.25 40.67 20.25
  Q 260.95 20.25 481.23 20.25
  Q 489.92 20.25 493.59 21.70
  C 506.12 26.68 504.32 38.99 504.20 49.99
  A 0.52 0.51 -89.4 0 1 503.69 50.50
  Q 298.72 50.50 93.75 50.50
  Q 91.02 50.50 86.75 50.77
  C 70.58 51.79 56.47 62.17 52.06 77.71
  Q 50.51 83.14 50.51 97.57
  Q 50.49 230.13 50.50 362.69
  A 0.51 0.51 -0.6 0 1 50.00 363.20
  C 38.77 363.35 26.62 364.85 21.62 352.46
  Q 20.25 349.06 20.25 342.35
  Q 20.25 189.67 20.23 37.00
  Z"
/>
<path fill="#999999" d="
  M 0.54 27.75
  Q 1.36 27.77 1.26 29.25
  Q 1.06 32.10 0.03 33.45
  L 0.00 29.94
  L 0.54 27.75
  Z"
/>
<path fill="#cbcbcb" d="
  M 244.58 199.43
  C 238.60 191.85 231.79 193.52 226.26 200.24
  Q 148.81 294.21 71.17 388.10
  Q 70.85 388.49 70.85 388.00
  Q 70.66 238.98 70.77 90.09
  C 70.78 76.00 79.21 70.76 92.21 70.76
  Q 313.70 70.74 535.21 70.76
  C 543.55 70.76 550.17 73.59 553.36 81.40
  Q 554.75 84.82 554.75 91.80
  Q 554.75 243.72 554.75 395.64
  C 554.75 397.87 554.41 399.88 553.99 402.00
  Q 553.72 403.34 552.87 402.27
  Q 495.33 329.67 437.67 257.07
  C 436.14 255.14 434.53 252.85 432.23 251.90
  C 423.99 248.48 420.87 253.65 415.68 260.15
  Q 384.79 298.87 354.25 337.39
  A 0.52 0.52 -44.8 0 1 353.43 337.39
  Q 298.96 268.29 244.58 199.43
  Z
  M 426.81 165.25
  A 58.46 58.46 0.0 0 0 368.35 106.79
  A 58.46 58.46 0.0 0 0 309.89 165.25
  A 58.46 58.46 0.0 0 0 368.35 223.71
  A 58.46 58.46 0.0 0 0 426.81 165.25
  Z"
/>
<path fill="#323232" d="
  M 426.81 165.25
  A 58.46 58.46 0.0 0 1 368.35 223.71
  A 58.46 58.46 0.0 0 1 309.89 165.25
  A 58.46 58.46 0.0 0 1 368.35 106.79
  A 58.46 58.46 0.0 0 1 426.81 165.25
  Z
  M 406.64 165.25
  A 38.29 38.29 0.0 0 0 368.35 126.96
  A 38.29 38.29 0.0 0 0 330.06 165.25
  A 38.29 38.29 0.0 0 0 368.35 203.54
  A 38.29 38.29 0.0 0 0 406.64 165.25
  Z"
/>
<circle fill="#cbcbcb" cx="368.35" cy="165.25" r="38.29"/>
<path fill="#999999" d="
  M 329.69 413.73
  A 0.56 0.14 56.0 0 1 329.34 413.42
  L 209.77 252.73
  A 0.78 0.68 -44.4 0 1 209.84 251.83
  L 235.29 221.05
  A 0.42 0.42 45.8 0 1 235.94 221.06
  L 387.50 413.25
  Q 387.90 413.75 387.25 413.75
  L 329.69 413.73
  Z"
/>
<path fill="#999999" d="
  M 79.30 411.24
  A 0.63 0.58 34.3 0 1 79.09 410.34
  L 195.81 268.81
  A 0.51 0.41 -45.4 0 1 196.53 268.72
  L 304.04 413.20
  Q 304.45 413.75 303.78 413.75
  Q 195.97 413.75 88.00 413.53
  Q 83.42 413.52 79.30 411.24
  Z"
/>
<path fill="#999999" d="
  M 413.26 413.24
  L 366.96 354.54
  A 0.90 0.69 -46.6 0 1 367.06 353.56
  L 427.72 277.23
  A 0.20 0.19 46.0 0 1 428.02 277.24
  L 535.92 413.31
  Q 536.27 413.75 535.69 413.75
  L 414.25 413.75
  A 1.34 1.19 68.8 0 1 413.26 413.24
  Z"
/>
</svg>
