<?xml version="1.0" encoding="UTF-8" standalone="no"?>
<!DOCTYPE svg PUBLIC "-//W3C//DTD SVG 1.1//EN" "http://www.w3.org/Graphics/SVG/1.1/DTD/svg11.dtd">
<svg xmlns="http://www.w3.org/2000/svg" version="1.1" viewBox="0 0 406 488">
<circle fill="#000000" cx="199.84" cy="118.18" r="116.33"/>
<path fill="#000000" fill-opacity="0.992" d="
  M 363.81 263.44
  Q 370.78 270.62 375.14 277.34
  Q 384.30 291.48 390.25 307.25
  Q 397.42 326.23 400.94 349.58
  Q 402.50 359.95 403.42 369.43
  Q 404.52 380.94 404.75 394.25
  Q 404.93 404.78 404.14 414.13
  Q 403.23 425.03 400.26 433.54
  Q 392.06 457.03 371.60 471.28
  Q 365.13 475.79 356.93 479.38
  Q 348.64 483.01 341.00 484.75
  Q 334.51 486.23 324.75 486.23
  Q 205.87 486.25 87.00 486.25
  Q 69.71 486.25 54.40 481.27
  Q 44.65 478.10 36.38 472.74
  Q 10.55 455.99 3.25 424.50
  Q 2.48 421.20 1.76 414.85
  Q 1.21 410.08 1.09 405.11
  Q 0.54 383.28 3.31 361.65
  Q 4.74 350.48 6.29 341.87
  Q 10.05 321.01 17.99 301.25
  Q 23.62 287.21 32.11 274.85
  Q 38.16 266.02 45.10 259.72
  Q 67.53 239.35 99.50 236.75
  Q 108.65 236.01 116.40 239.24
  Q 118.47 240.10 129.55 246.96
  Q 139.25 252.96 142.56 254.94
  Q 152.31 260.76 164.19 265.80
  Q 173.20 269.62 182.71 271.33
  Q 191.68 272.94 201.85 273.06
  Q 217.31 273.25 232.08 268.75
  Q 240.70 266.13 247.47 263.19
  Q 254.46 260.15 261.94 255.44
  Q 271.61 249.35 281.32 243.33
  Q 287.97 239.21 291.81 237.81
  Q 295.66 236.42 301.25 236.67
  Q 310.72 237.10 319.99 239.07
  Q 345.37 244.44 363.81 263.44
  Z"
/>
</svg>
